<svg xmlns="http://www.w3.org/2000/svg" width="20" height="20" viewBox="0 0 20 20">
    <path fill="#AFB2BD" d="M16.462 1C17.863 1 19 2.137 19 3.538v9.231c0 1.402-1.137 2.539-2.538 2.539l-1.155-.001v1.286c0 1.276-.992 2.32-2.248 2.402l-.158.005h-8.44C2.55 19 1 17.45 1 15.538v-8.44C1 5.77 2.077 4.693 3.407 4.693h1.285V3.538C4.692 2.137 5.83 1 7.231 1h9.23zM4.692 6.076H3.407c-.565 0-1.022.458-1.022 1.023v8.44c0 1.147.93 2.076 2.077 2.076h8.44c.564 0 1.021-.457 1.021-1.022v-1.286H7.231c-1.402 0-2.539-1.136-2.539-2.538V6.076zm11.77-3.691H7.23c-.637 0-1.154.516-1.154 1.153v9.231c0 .637.517 1.154 1.154 1.154h9.23c.638 0 1.154-.517 1.154-1.154V3.54c0-.638-.516-1.154-1.153-1.154zm-4.616 2.769c.383 0 .692.31.692.692v1.615h1.616c.35 0 .64.261.686.599l.006.094c0 .382-.31.692-.692.692h-1.616v1.616c0 .35-.26.64-.598.686l-.094.006c-.382 0-.692-.31-.692-.692l-.001-1.616H9.538c-.35 0-.64-.26-.686-.598l-.006-.094c0-.383.31-.692.692-.692l1.615-.001V5.846c0-.35.261-.64.6-.686z"/>
</svg>
