<svg xmlns="http://www.w3.org/2000/svg" width="20" height="20" viewBox="0 0 20 20">
    <g fill="#AFB2BD">
        <path d="M7.737 4.484l7.779 7.779c.34.34.276.91-.133 1.166l-9.194 5.746c-1.537.96-3.534.733-4.816-.548C.092 17.345-.136 15.348.825 13.81l5.746-9.194c.256-.409.825-.474 1.166-.133zm-5.084 9.23l-.556.892c-.59.945-.45 2.172.337 2.96.788.788 2.015.927 2.96.337l.89-.557-3.63-3.632zm2.308-3.692L3.47 12.409l4.121 4.12 2.386-1.491-5.015-5.016zm2.382-3.81L5.777 8.717l5.505 5.505 2.506-1.565-6.445-6.445zM13.471 4.6V1.2c0-.414-.335-.75-.75-.75-.414 0-.75.336-.75.75v3.4c0 .414.336.75.75.75.415 0 .75-.336.75-.75zM15.471 8.863l2.66-1.735c.347-.226.445-.69.218-1.038-.226-.347-.69-.444-1.038-.218l-2.66 1.735c-.346.227-.444.691-.217 1.038.226.347.69.445 1.037.218zM16.252 4.905l.827-.827c.293-.293.293-.768 0-1.06-.293-.293-.768-.293-1.06 0l-.828.827c-.293.293-.293.767 0 1.06.293.293.768.293 1.06 0zM16.721 11.125h.217c.414 0 .75-.336.75-.75s-.336-.75-.75-.75h-.217c-.414 0-.75.336-.75.75s.336.75.75.75zM12.721 8.125h.217c.414 0 .75-.336.75-.75s-.336-.75-.75-.75h-.217c-.414 0-.75.336-.75.75s.336.75.75.75zM10.41 3.078l-.443-1.026c-.164-.38-.605-.555-.986-.391-.38.164-.555.605-.39.986l.442 1.025c.164.38.605.556.986.392.38-.165.555-.606.39-.986z" transform="translate(1)"/>
    </g>
</svg>
