<svg xmlns="http://www.w3.org/2000/svg" width="20" height="20" viewBox="0 0 20 20">
    <path fill="#AFB2BD" fill-rule="evenodd" d="M10 1.818c0-.451.367-.818.818-.818C15.337 1 19 4.663 19 9.182c0 .451-.367.818-.818.818h-.858c.026.27.04.542.04.818C17.364 15.337 13.7 19 9.182 19S1 15.337 1 10.818s3.663-8.182 8.182-8.182c.276 0 .549.014.818.04v-.858zm0 2.505c-.268-.033-.54-.05-.818-.05-3.615 0-6.546 2.93-6.546 6.545 0 3.615 2.931 6.546 6.546 6.546s6.545-2.931 6.545-6.546c0-.277-.017-.55-.05-.818h-4.859c-.451 0-.818-.367-.818-.818V4.323zm1.636-1.636v5.677h5.677c-.37-2.961-2.716-5.308-5.677-5.677z"/>
</svg>
