<?xml version="1.0" encoding="UTF-8"?>
<svg width="20px" height="20px" viewBox="0 0 20 20" version="1.1" xmlns="http://www.w3.org/2000/svg" xmlns:xlink="http://www.w3.org/1999/xlink">
    <!-- Generator: sketchtool 64 (101010) - https://sketch.com -->
    <title>C7B7E807-CB57-4632-8EBA-18F6666DF0EE</title>
    <desc>Created with sketchtool.</desc>
    <g id="PC" stroke="none" stroke-width="1" fill="none" fill-rule="evenodd">
        <g id="00-Common_Layout(view)" transform="translate(-28.000000, -527.000000)">
            <g id="Menu" transform="translate(0.000000, 54.000000)">
                <g id="side">
                    <g id="09-marketing" transform="translate(0.000000, 464.000000)">
                        <g id="icon/side/marketing_on" transform="translate(28.000000, 9.000000)">
                            <g id="icon_marketing" transform="translate(0.000000, 1.000000)">
                                <path d="M8.57142857,18.0952381 C13.3052979,18.0952381 17.1428571,14.2576788 17.1428571,9.52380952 C17.1428571,4.78994024 13.3052979,0.952380952 8.57142857,0.952380952 C3.83755929,0.952380952 0,4.78994024 0,9.52380952 C0,14.2576788 3.83755929,18.0952381 8.57142857,18.0952381 Z M8.57142857,16.7765568 C4.56584687,16.7765568 1.31868132,13.5293912 1.31868132,9.52380952 C1.31868132,5.51822782 4.56584687,2.27106227 8.57142857,2.27106227 C12.5770103,2.27106227 15.8241758,5.51822782 15.8241758,9.52380952 C15.8241758,13.5293912 12.5770103,16.7765568 8.57142857,16.7765568 Z" id="Shape" fill="#FFFFFF" fill-rule="nonzero"></path>
                                <path d="M8.57142857,14.2857143 C11.201356,14.2857143 13.3333333,12.1537369 13.3333333,9.52380952 C13.3333333,6.89388214 11.201356,4.76190476 8.57142857,4.76190476 C5.94150119,4.76190476 3.80952381,6.89388214 3.80952381,9.52380952 C3.80952381,12.1537369 5.94150119,14.2857143 8.57142857,14.2857143 Z" id="Shape-Copy" stroke="#FFFFFF" stroke-width="1.5" fill-opacity="0" fill="#000000" fill-rule="nonzero"></path>
                                <path d="M8.57142857,10.4761905 C9.09741405,10.4761905 9.52380952,10.049795 9.52380952,9.52380952 C9.52380952,8.99782405 9.09741405,8.57142857 8.57142857,8.57142857 C8.0454431,8.57142857 7.61904762,8.99782405 7.61904762,9.52380952 C7.61904762,10.049795 8.0454431,10.4761905 8.57142857,10.4761905 Z" id="Shape-Copy-2" stroke="#FFFFFF" stroke-width="1.5" fill-opacity="0" fill="#000000" fill-rule="nonzero"></path>
                                <path d="M14.7081981,1.51515152 C14.2900162,1.51515152 13.9506223,1.17424242 13.9506223,0.757575758 C13.9506223,0.340909091 14.2900162,0 14.7081981,0 L18.4417478,0 C18.8599297,0 19.1993236,0.340909091 19.1993236,0.757575758 L19.1993236,4.48809524 C19.1993236,4.9047619 18.8599297,5.245671 18.4417478,5.245671 C18.023566,5.245671 17.6841721,4.9047619 17.6841721,4.48809524 L17.6841721,2.58333333 L9.86479978,9.45562771 C9.56858766,9.75108225 9.08979978,9.75108225 8.79358766,9.45562771 C8.49737554,9.16017316 8.49737554,8.67532468 8.79358766,8.37987013 L16.61296,1.51515152 L14.7081981,1.51515152 Z" id="Path" fill="#FFFFFF"></path>
                            </g>
                        </g>
                    </g>
                </g>
            </g>
        </g>
    </g>
</svg>