<svg xmlns="http://www.w3.org/2000/svg" width="20" height="20" viewBox="0 0 20 20">
    <g fill="none" fill-rule="evenodd">
        <path fill="#AFB2BD" fill-rule="nonzero" d="M8.571 18.095c4.734 0 8.572-3.837 8.572-8.571S13.305.952 8.57.952C3.838.952 0 4.79 0 9.524c0 4.734 3.838 8.571 8.571 8.571zm0-1.318c-4.005 0-7.252-3.248-7.252-7.253 0-4.006 3.247-7.253 7.252-7.253 4.006 0 7.253 3.247 7.253 7.253 0 4.005-3.247 7.253-7.253 7.253z" transform="translate(0 1)"/>
        <path fill="#000" fill-opacity="0" fill-rule="nonzero" stroke="#AFB2BD" stroke-width="1.5" d="M8.571 14.286c2.63 0 4.762-2.132 4.762-4.762 0-2.63-2.132-4.762-4.762-4.762-2.63 0-4.761 2.132-4.761 4.762 0 2.63 2.132 4.762 4.761 4.762z" transform="translate(0 1)"/>
        <path fill="#000" fill-opacity="0" fill-rule="nonzero" stroke="#AFB2BD" stroke-width="1.5" d="M8.571 10.476c.526 0 .953-.426.953-.952s-.427-.953-.953-.953-.952.427-.952.953.426.952.952.952z" transform="translate(0 1)"/>
        <path fill="#AFB2BD" d="M14.708 1.515c-.418 0-.757-.34-.757-.757S14.29 0 14.708 0h3.734c.418 0 .757.34.757.758v3.73c0 .417-.34.758-.757.758-.418 0-.758-.341-.758-.758V2.583l-7.82 6.873c-.295.295-.774.295-1.07 0-.297-.296-.297-.78 0-1.076l7.819-6.865h-1.905z" transform="translate(0 1)"/>
    </g>
</svg>
