<svg xmlns="http://www.w3.org/2000/svg" width="20" height="20" viewBox="0 0 20 20">
    <path fill="#FFF" fill-rule="evenodd" d="M10 1.594c-.203 0-.406.007-.605.021-.242.018-.498.224-.55.582l-.078.52c-.132.896-.759 1.561-1.455 1.928-.105.055-.207.114-.308.175-.673.41-1.574.61-2.431.274l-.499-.196c-.343-.133-.652-.02-.79.176-.226.326-.43.67-.606 1.03-.106.213-.051.532.238.755l.425.33c.723.559.999 1.422.974 2.197l-.003.177.003.176c.025.775-.25 1.638-.974 2.197l-.425.33c-.29.223-.344.542-.238.756.176.36.38.703.606 1.028.138.197.447.31.79.177l.499-.196c.857-.335 1.758-.135 2.431.274.1.061.203.12.308.175.696.367 1.323 1.032 1.455 1.928l.077.52c.053.358.31.564.55.582.2.014.403.021.606.021.203 0 .405-.007.605-.021.242-.018.497-.224.55-.582l.077-.52c.133-.896.76-1.561 1.456-1.928.105-.055.207-.114.309-.175.671-.41 1.573-.61 2.43-.274l.499.196c.343.133.652.02.79-.177.226-.325.43-.67.606-1.028.105-.214.05-.533-.238-.757l-.425-.329c-.724-.559-.999-1.422-.974-2.197l.003-.177-.003-.176c-.025-.775.25-1.638.974-2.197l.425-.33c.289-.223.343-.542.238-.756-.177-.358-.38-.703-.607-1.029-.137-.196-.446-.31-.79-.176l-.498.196c-.857.335-1.759.136-2.43-.275-.102-.06-.204-.119-.31-.174-.696-.367-1.322-1.032-1.455-1.928l-.077-.52c-.053-.358-.308-.564-.55-.582-.2-.014-.402-.021-.605-.021zM9.276.026C9.515.01 9.756 0 10 0s.485.009.724.026c1.125.08 1.895.97 2.04 1.942l.076.52c.041.275.25.56.616.753.135.07.268.146.397.225.353.215.71.25.972.147l.5-.195c.928-.364 2.097-.154 2.732.758.272.39.517.804.729 1.234.49.996.09 2.094-.697 2.701l-.424.329c-.221.171-.369.491-.356.897.003.075.004.15.004.226 0 .075-.001.15-.004.225-.013.406.135.726.356.897l.424.329c.786.607 1.187 1.705.697 2.701-.212.43-.457.843-.729 1.234-.635.912-1.804 1.122-2.733.758l-.5-.195c-.262-.103-.618-.068-.971.147-.13.08-.262.154-.397.225-.365.193-.575.478-.616.752l-.077.52c-.144.973-.914 1.862-2.04 1.943-.238.017-.48.026-.723.026-.244 0-.485-.009-.724-.026-1.125-.08-1.896-.97-2.04-1.942l-.077-.52c-.04-.275-.25-.56-.616-.753-.135-.07-.267-.146-.396-.225-.353-.215-.71-.25-.972-.147l-.5.195c-.928.364-2.097.154-2.732-.758-.272-.39-.517-.804-.728-1.234-.491-.996-.09-2.094.695-2.701l.424-.329c.222-.171.37-.491.356-.897-.002-.075-.003-.15-.003-.226 0-.075 0-.15.003-.225.013-.406-.134-.726-.356-.897L1.91 8.11C1.125 7.504.724 6.406 1.215 5.41c.211-.43.456-.843.728-1.234.635-.912 1.804-1.122 2.732-.758l.5.195c.262.103.62.068.972-.147.129-.08.261-.154.396-.225.366-.193.576-.478.616-.752l.077-.52C7.38.995 8.151.106 9.276.025zM10 7.172c-1.347 0-2.438 1.07-2.438 2.39S8.653 11.954 10 11.954c1.346 0 2.437-1.07 2.437-2.39S11.347 7.171 10 7.171zm-4.063 2.39c0-2.2 1.819-3.984 4.063-3.984 2.243 0 4.063 1.784 4.063 3.984s-1.82 3.985-4.063 3.985c-2.244 0-4.063-1.784-4.063-3.985z"/>
</svg>
