<svg xmlns="http://www.w3.org/2000/svg" width="20" height="20" viewBox="0 0 20 20">
    <g fill="#AFB2BD">
        <path d="M8.923 17.846c4.928 0 8.923-3.995 8.923-8.923S13.851 0 8.923 0 0 3.995 0 8.923s3.995 8.923 8.923 8.923zm0-1.373c-4.17 0-7.55-3.38-7.55-7.55s3.38-7.55 7.55-7.55 7.55 3.38 7.55 7.55-3.38 7.55-7.55 7.55z" transform="translate(1 1)"/>
        <path d="M3.548 14.915c.303-.467.799-.782 1.626-1.087.119-.044.242-.087.4-.141l.409-.138c1.226-.419 1.785-.763 2.001-1.566 0 .008.022-.065.042-.156.096-.446.068-.934-.181-1.407-.125-.236-.3-.45-.523-.635-.623-.589-.916-1.178-.916-2.082 0-1.554 1.155-2.67 2.517-2.67 1.345 0 2.517 1.143 2.517 2.67 0 .905-.3 1.51-.954 2.1-.232.194-.418.447-.539.729-.185.433-.203.873-.126 1.279.017.087.035.156.05.204.248.816.823 1.164 2.1 1.595l.352.118c.136.046.244.083.346.12.833.3 1.318.598 1.62 1.05l1.14-.764c-.502-.751-1.211-1.188-2.295-1.578l-.373-.13-.352-.117c-.855-.288-1.157-.472-1.228-.704-.002-.007-.006-.022-.011-.05-.03-.16-.024-.336.039-.482.037-.086.093-.163.177-.233.949-.856 1.427-1.821 1.427-3.137 0-2.293-1.794-4.042-3.89-4.042-2.11 0-3.89 1.72-3.89 4.042 0 1.312.466 2.249 1.38 3.11.118.1.177.172.218.248.077.147.087.318.053.476-.005.025-.009.036-.006.03-.068.24-.349.413-1.14.683l-.404.137c-.17.057-.303.104-.435.153-1.08.398-1.802.858-2.302 1.627l1.15.748z" transform="translate(1 1)"/>
    </g>
</svg>
