<svg xmlns="http://www.w3.org/2000/svg" width="20" height="20" viewBox="0 0 20 20">
    <path fill="#AFB2BD" d="M16.171 2C17.734 2 19 3.27 19 4.839V15.16C19 16.73 17.734 18 16.171 18H3.83C2.266 18 1 16.73 1 15.161V4.84C1 3.27 2.266 2 3.829 2H16.17zm0 1.548H3.83c-.71 0-1.286.578-1.286 1.29v10.323c0 .713.575 1.29 1.286 1.29H16.17c.71 0 1.286-.577 1.286-1.29V4.84c0-.713-.575-1.29-1.286-1.29zM11.308 11.5c.382 0 .692.336.692.75s-.31.75-.692.75H5.692C5.31 13 5 12.664 5 12.25s.31-.75.692-.75zm3-2.5c.382 0 .692.336.692.75s-.31.75-.692.75H5.692C5.31 10.5 5 10.164 5 9.75S5.31 9 5.692 9zm0-3c.382 0 .692.336.692.75s-.31.75-.692.75H5.692C5.31 7.5 5 7.164 5 6.75S5.31 6 5.692 6z"/>
</svg>
