<svg xmlns="http://www.w3.org/2000/svg" width="20" height="20" viewBox="0 0 20 20">
    <path fill="#FFF" d="M14.308 6H5.692C5.31 6 5 6.336 5 6.75s.31.75.692.75h8.616c.382 0 .692-.336.692-.75S14.69 6 14.308 6zm0 3H5.692C5.31 9 5 9.336 5 9.75s.31.75.692.75h8.616c.382 0 .692-.336.692-.75S14.69 9 14.308 9zm-3 2.5H5.692c-.382 0-.692.336-.692.75s.31.75.692.75h5.616c.382 0 .692-.336.692-.75s-.31-.75-.692-.75zM3.828 2h12.343C17.734 2 19 3.27 19 4.839V15.16C19 16.73 17.734 18 16.171 18H3.83C2.266 18 1 16.73 1 15.161V4.84C1 3.27 2.266 2 3.829 2zm0 1.548c-.71 0-1.285.578-1.285 1.29v10.323c0 .713.575 1.29 1.286 1.29H16.17c.71 0 1.286-.577 1.286-1.29V4.84c0-.713-.575-1.29-1.286-1.29H3.83z"/>
</svg>
