<svg xmlns="http://www.w3.org/2000/svg" width="20" height="20" viewBox="0 0 20 20">
    <path fill="#AFB2BD" fill-rule="evenodd" d="M8.817.303c.737-.404 1.629-.404 2.366 0l6.546 3.59c.232.128.439.29.615.48.415.445.656 1.038.656 1.666v7.047c0 .893-.488 1.715-1.271 2.145l-6.546 3.591c-.737.404-1.629.404-2.366 0l-6.546-3.59C1.488 14.801 1 13.978 1 13.085V6.039c0-.628.24-1.22.656-1.667.176-.188.383-.35.615-.478L8.817.303zm1.577 1.43c-.245-.135-.543-.135-.788 0l-5.79 3.176L10 8.611l6.185-3.701-5.79-3.177zm6.97 4.374l-6.546 3.917v7.136L16.94 13.8c.262-.143.424-.417.424-.715V6.107zM9.182 17.16v-7.136L2.636 6.107v6.979c0 .298.162.572.424.715l6.122 3.359z"/>
</svg>
