<svg xmlns="http://www.w3.org/2000/svg" width="20" height="20" viewBox="0 0 20 20">
    <path fill="#FFF" fill-rule="evenodd" d="M8.922 2.252c.326.336.326.888 0 1.224L6.178 7.461h7.644l-2.744-3.985c-.326-.336-.326-.888 0-1.224.325-.336.852-.336 1.178 0l3.922 5.21h2.989c.46 0 .833.387.833.861s-.373.862-.833.862h-.139l-1.293 7.361c-.216 1.224-1.25 2.12-2.46 2.12H4.726c-1.21 0-2.244-.896-2.46-2.12L.972 9.186H.833c-.46 0-.833-.389-.833-.863s.373-.862.833-.862h2.989l3.922-5.209c.326-.336.853-.336 1.178 0zM2.665 9.185l1.24 7.05c.07.406.417.708.82.708h10.55c.403 0 .748-.302.82-.707l1.24-7.05H2.665zm3.447 1.733c.455-.078.885.241.96.715l.416 2.586c.076.465-.23.914-.684.991-.454.078-.884-.241-.959-.715l-.417-2.586c-.075-.466.231-.914.684-.991zm7.775 0c.454.077.76.525.685.99l-.417 2.587c-.075.474-.505.793-.96.715-.453-.077-.76-.526-.683-.991l.416-2.586c.075-.474.505-.793.96-.715zM10 10.909c.46 0 .833.388.833.862v2.586c0 .474-.373.862-.833.862-.46 0-.833-.388-.833-.862V11.77c0-.474.373-.862.833-.862z"/>
</svg>
