<?xml version="1.0" encoding="UTF-8"?>
<svg width="20px" height="20px" viewBox="0 0 20 20" version="1.1" xmlns="http://www.w3.org/2000/svg" xmlns:xlink="http://www.w3.org/1999/xlink">
    <!-- Generator: sketchtool 64 (101010) - https://sketch.com -->
    <title>39C4DEB3-0B60-4FB5-80BB-2FCA2F6BBD89</title>
    <desc>Created with sketchtool.</desc>
    <g id="PC" stroke="none" stroke-width="1" fill="none" fill-rule="evenodd">
        <g id="00-Common_Layout(view)" transform="translate(-28.000000, -353.000000)" fill="#FFFFFF" fill-rule="nonzero">
            <g id="Menu" transform="translate(0.000000, 54.000000)">
                <g id="side">
                    <g id="06-promotion" transform="translate(0.000000, 290.000000)">
                        <g id="icon/side/promotion_on" transform="translate(28.000000, 9.000000)">
                            <g id="icon_promotion" transform="translate(1.000000, 0.000000)">
                                <path d="M7.73743687,4.48438854 L15.5156115,12.2625631 C15.8566588,12.6036105 15.7917819,13.1732662 15.3827806,13.4288919 L6.18906784,19.1749624 C4.65196459,20.1356519 2.65519553,19.9082439 1.37347584,18.6265242 C0.0917561399,17.3448045 -0.135651938,15.3480354 0.825037591,13.8109322 L6.57110805,4.61721942 C6.82673385,4.20821815 7.39638952,4.14334119 7.73743687,4.48438854 Z M2.65327354,13.7136676 L2.09703505,14.6059306 C1.50654128,15.5507206 1.64631907,16.778047 2.43413601,17.565864 C3.22195295,18.3536809 4.44927941,18.4934587 5.39406943,17.902965 L6.28427354,17.3456676 L2.65327354,13.7136676 Z M4.96127354,10.0216676 L3.46927354,12.4086676 L7.59027354,16.5296676 L9.97627354,15.0376676 L4.96127354,10.0216676 Z M7.3434287,6.21170072 L5.77727354,8.71666756 L11.2822735,14.2216676 L13.7882993,12.6565713 L7.3434287,6.21170072 Z" id="Shape"></path>
                                <path d="M13.4713193,4.6 L13.4713193,1.2 C13.4713193,0.785786438 13.1355329,0.45 12.7213193,0.45 C12.3071057,0.45 11.9713193,0.785786438 11.9713193,1.2 L11.9713193,4.6 C11.9713193,5.01421356 12.3071057,5.35 12.7213193,5.35 C13.1355329,5.35 13.4713193,5.01421356 13.4713193,4.6 Z" id="Shape"></path>
                                <path d="M15.4714549,8.86344177 L18.1311419,7.12812854 C18.4780477,6.90178978 18.5757866,6.43708324 18.3494478,6.09017743 C18.1231091,5.74327161 17.6584025,5.64553271 17.3114967,5.87187146 L14.6518098,7.6071847 C14.3049039,7.83352345 14.207165,8.29822999 14.4335038,8.64513581 C14.6598426,8.99204162 15.1245491,9.08978053 15.4714549,8.86344177 Z" id="Shape"></path>
                                <path d="M16.2516494,4.90533009 L17.0787591,4.07822037 C17.3716523,3.78532715 17.3716523,3.31045341 17.0787591,3.0175602 C16.7858659,2.72466698 16.3109922,2.72466698 16.0180989,3.0175602 L15.1909892,3.84466991 C14.898096,4.13756313 14.898096,4.61243687 15.1909892,4.90533009 C15.4838824,5.1982233 15.9587562,5.1982233 16.2516494,4.90533009 Z" id="Shape"></path>
                                <path d="M16.7213193,11.125 L16.9380971,11.125 C17.3523107,11.125 17.6880971,10.7892136 17.6880971,10.375 C17.6880971,9.96078644 17.3523107,9.625 16.9380971,9.625 L16.7213193,9.625 C16.3071057,9.625 15.9713193,9.96078644 15.9713193,10.375 C15.9713193,10.7892136 16.3071057,11.125 16.7213193,11.125 Z" id="Shape"></path>
                                <path d="M12.7213193,8.125 L12.9380971,8.125 C13.3523107,8.125 13.6880971,7.78921356 13.6880971,7.375 C13.6880971,6.96078644 13.3523107,6.625 12.9380971,6.625 L12.7213193,6.625 C12.3071057,6.625 11.9713193,6.96078644 11.9713193,7.375 C11.9713193,7.78921356 12.3071057,8.125 12.7213193,8.125 Z" id="Shape"></path>
                                <path d="M10.4099104,3.07777568 L9.9672718,2.05229768 C9.80311934,1.67199932 9.36175475,1.49677844 8.98145638,1.6609309 C8.60115802,1.82508336 8.42593714,2.26644796 8.5900896,2.64674632 L9.0327282,3.67222432 C9.19688066,4.05252268 9.63824525,4.22774356 10.0185436,4.0635911 C10.398842,3.89943864 10.5740629,3.45807404 10.4099104,3.07777568 Z" id="Shape"></path>
                            </g>
                        </g>
                    </g>
                </g>
            </g>
        </g>
    </g>
</svg>