<?xml version="1.0" encoding="UTF-8"?>
<svg width="16px" height="16px" viewBox="0 0 16 16" version="1.1" xmlns="http://www.w3.org/2000/svg" xmlns:xlink="http://www.w3.org/1999/xlink">
    <!-- Generator: sketchtool 64 (101010) - https://sketch.com -->
    <title>AE72D25B-41CB-42AB-8063-98E5BCF4AB86</title>
    <desc>Created with sketchtool.</desc>
    <g id="PC" stroke="none" stroke-width="1" fill="none" fill-rule="evenodd">
        <g id="04-주문/배송_주문관리_배송준비중리스트" transform="translate(-1045.000000, -230.000000)" fill="#76787B" fill-rule="nonzero">
            <g id="Top_content" transform="translate(325.000000, 175.000000)">
                <g id="search">
                    <g id="t-copy" transform="translate(0.000000, 46.000000)">
                        <g id="date" transform="translate(705.000000, 0.000000)">
                            <g id="-icon_schedule" transform="translate(15.000000, 9.327848)">
                                <path d="M11.4946472,5.55111512e-15 C11.8578368,5.55111512e-15 12.1522602,0.294423373 12.1522602,0.657613009 L12.1522602,0.657613009 L12.152,1.753 L12.9330558,1.75363469 C14.2647512,1.75363469 15.3443035,2.83318706 15.3443035,4.16488239 L15.3443035,12.9330558 C15.3443035,14.2647512 14.2647512,15.3443035 12.9330558,15.3443035 L2.4112477,15.3443035 C1.07955237,15.3443035 -2.2470914e-13,14.2647512 -2.2470914e-13,12.9330558 L-2.2470914e-13,4.16488239 C-2.2470914e-13,2.83318706 1.07955237,1.75363469 2.4112477,1.75363469 L3.192,1.753 L3.19204336,0.657613009 C3.19204336,0.327440613 3.43536847,0.0540998386 3.75247914,0.00713021352 L3.84965637,5.55111512e-15 C4.21284601,5.55111512e-15 4.50726938,0.294423373 4.50726938,0.657613009 L4.50726938,0.657613009 L4.507,1.753 L10.837,1.753 L10.8370342,0.657613009 C10.8370342,0.327440613 11.0803593,0.0540998386 11.3974699,0.00713021352 Z M14.029,7.014 L1.315,7.014 L1.31522602,12.9330558 C1.31522602,13.5383719 1.80593164,14.0290775 2.4112477,14.0290775 L12.9330558,14.0290775 C13.5383719,14.0290775 14.0290775,13.5383719 14.0290775,12.9330558 L14.029,7.014 Z M12.9330558,3.06886071 L2.4112477,3.06886071 C1.80593164,3.06886071 1.31522602,3.55956633 1.31522602,4.16488239 L1.315,5.699 L14.029,5.699 L14.0290775,4.16488239 C14.0290775,3.55956633 13.5383719,3.06886071 12.9330558,3.06886071 Z" id="Shape"></path>
                            </g>
                        </g>
                    </g>
                </g>
            </g>
        </g>
    </g>
</svg>